<?xml version="1.0" encoding="utf-8" ?><svg xmlns="http://www.w3.org/2000/svg" xmlns:xlink="http://www.w3.org/1999/xlink" width="1024" height="1024" viewBox="157.778 155.691 706.91 691.288"><path fill="#2A292A" d="M292.666 157.22C302.805 156.451 315.079 156.993 325.394 157.011L382.105 157.061L559.554 157.072L671.548 157.058C695.009 157.019 729.438 155.691 751.498 159.724C776.094 164.21 798.95 175.474 817.491 192.246C844.946 216.708 861.728 250.128 862.918 286.791C863.329 299.485 863.353 310.742 863.358 323.434L863.381 376.055L863.284 546.158L863.368 653.116C863.44 677.626 864.688 711.617 860.315 734.842C855.569 759.297 844.22 781.988 827.497 800.452C799.982 830.858 766.658 843.977 726.625 845.967C701.968 846.979 677.252 846.926 652.709 844.775C649.45 844.489 644.976 846.234 641.872 846.011C612.386 843.893 582.611 845.294 553.051 844.904C546.262 844.818 539.016 846.746 531.995 846.568C524.375 846.375 516.809 844.959 509.264 844.887L410.247 844.888C388.862 844.852 367.314 844.748 345.923 844.838C341.297 844.857 335.137 846.169 330.327 846.29C320.415 846.539 310.079 846.384 300.187 845.87C291.751 845.432 281.113 845.091 272.783 843.802C247.307 839.667 223.6 828.155 204.596 810.69C171.38 780.179 157.778 741.214 158.572 696.875C158.996 673.168 158.965 649.301 158.961 625.58L158.865 451.603L158.835 337.976C158.857 323.095 158.987 307.885 158.901 293.132C158.527 229.174 203.611 174.258 265.406 160.203C274.679 158.094 283.222 157.602 292.666 157.22Z"/><defs><linearGradient id="gradient_0" gradientUnits="userSpaceOnUse" x1="609.11292" y1="636.35712" x2="517.90594" y2="414.09814"><stop offset="0" stop-color="#BC831D"/><stop offset="1" stop-color="#FFE261"/></linearGradient></defs><path fill="url(#gradient_0)" d="M396.431 485.837C395.734 476.112 396.231 459.891 396.249 449.637L396.365 379.154L396.323 324.107C396.259 312.249 393.775 290.531 401.885 281.454C412.452 269.628 422.943 273.215 435.017 279.622C449.367 287.235 463.096 295.812 477.298 303.789L583.554 363.904L620.996 385.033C623.603 386.496 636.032 393.267 637.583 394.642C643.695 397.642 650.978 401.961 656.999 405.341L699.243 429.268L747.348 456.266C757.19 461.837 767.403 467.184 776.517 473.797C784.363 479.491 787.253 490.268 782.82 498.928C780.643 503.183 777.658 506.234 773.599 508.791C765.189 513.799 756.606 518.753 748.151 523.709L700.515 551.74L557.924 635.723L464.721 690.513C456.9 695.1 449.173 699.828 441.371 704.442C430.428 710.915 420.559 718.577 407.763 711.18C402.459 708.05 398.621 702.935 397.1 696.967C395.578 690.976 396.035 661.396 396.059 653.019L396.297 567.891L396.16 509.187C396.18 505.457 396.013 488.814 396.431 485.837Z"/><defs><linearGradient id="gradient_1" gradientUnits="userSpaceOnUse" x1="512.06836" y1="436.41031" x2="446.07913" y2="262.21149"><stop offset="0" stop-color="#F6D95D"/><stop offset="1" stop-color="#FFFF92"/></linearGradient></defs><path fill="url(#gradient_1)" d="M396.431 485.837C395.734 476.112 396.231 459.891 396.249 449.637L396.365 379.154L396.323 324.107C396.259 312.249 393.775 290.531 401.885 281.454C412.452 269.628 422.943 273.215 435.017 279.622C449.367 287.235 463.096 295.812 477.298 303.789L583.554 363.904L620.996 385.033C623.603 386.496 636.032 393.267 637.583 394.642C637.413 394.671 637.242 394.7 637.072 394.728C630.335 392.498 623.232 386.931 615.954 386.067C613.223 385.743 608.782 387.516 607.046 387.626C601.819 387.959 603.525 386.572 597.789 388.69C591.4 391.05 585.912 394.369 579.798 396.987C575.584 398.791 567.632 398.506 563.709 401.426C563.139 401.851 559.557 404.113 560.057 402.781C560.034 402.843 559.499 401.373 559.52 401.428C557.094 400.994 552.245 404.138 550.194 405.563C546.705 407.986 544.887 408.938 540.954 410.371C534.64 412.672 527.63 411.909 522.372 415.858C520.923 416.947 519.296 418.7 518.049 418.609C514.137 418.323 509.705 422.607 506.231 423.635C502.876 424.628 497.986 424.442 494.179 425.637C488.965 427.272 483.87 430.296 478.842 432.303C478.537 432.425 476.41 431.968 475.927 431.861C469.225 434.528 463.606 438.23 457.243 441.084L431.542 452.451C420.544 457.258 404.43 462.581 398.876 474.873C396.847 479.366 397.657 482.955 396.431 485.837Z"/><path fill="#E6BC48" d="M246.051 500.097C260.577 499.62 277.15 499.962 291.828 499.954L377.835 500.027L377.905 537.516L362.75 537.495L286.641 537.52C277.733 537.519 246.149 538.836 239.425 534.996C235.218 532.564 232.17 528.538 230.97 523.83C227.789 511.789 234.127 502.675 246.051 500.097Z"/><path fill="#FAE270" d="M293.306 378.598C301.797 377.997 314.637 378.373 323.325 378.372L377.89 378.461C377.765 390.78 377.794 403.101 377.98 415.42L364.625 415.37L319.937 415.472C312.923 415.483 294.857 416.383 289.362 413.71C284.582 411.41 280.958 407.246 279.341 402.194C277.82 397.534 278.27 392.454 280.588 388.135C283.507 382.612 287.746 380.452 293.306 378.598Z"/><path fill="#FAE270" d="M206.456 439.113C227.739 438.136 250.753 439.173 272.143 439.335C274.343 439.352 277.59 440.827 279.406 442.076C283.47 444.92 286.255 449.246 287.16 454.123C289.195 465.146 282.393 474.119 271.454 475.87C259.363 476.383 245.935 475.633 233.645 475.93C224.971 475.662 215.846 476.617 207.226 475.859C192.593 474.572 186.378 458.895 193.722 447.063C196.525 442.548 201.562 440.074 206.456 439.113Z"/><path fill="#E6BC48" d="M219.514 561.121C221.661 560.983 226.246 560.813 228.218 561.007C239.561 562.12 265.895 558.18 274.93 564.014C279.095 566.695 282.003 570.943 282.994 575.796C284.113 580.942 283.016 586.321 279.971 590.617C276.509 595.476 272.286 597.411 266.657 598.399C257.477 598.258 248.294 598.225 239.113 598.3C233.936 598.36 223.366 598.773 218.813 598.179C216.492 597.859 214.254 597.094 212.223 595.927C207.721 593.387 204.501 589.064 203.354 584.024C200.591 572.31 208.395 563.489 219.514 561.121Z"/><path fill="#E6BC48" d="M321.365 561.149C339.069 560.444 360.016 561.001 377.96 561.031L378.001 598.403L362.885 598.35L336.483 598.526C329.652 598.565 320.033 599.314 314.297 595.632C299.202 585.943 304.211 564.909 321.365 561.149Z"/><path fill="#FAE270" d="M325.439 439.102C341.468 438.385 361.612 438.962 377.95 438.974L377.906 476.051L362.136 476.05C352.502 476.085 326.203 477.836 318.53 473.441C314.342 471.023 311.339 466.982 310.232 462.274C307.507 451.068 314.396 441.457 325.439 439.102Z"/></svg>